<?xml version="1.0" encoding="UTF-8"?>
<svg width="100px" height="60px" viewBox="0 0 100 60" version="1.1" xmlns="http://www.w3.org/2000/svg" xmlns:xlink="http://www.w3.org/1999/xlink">
    <!-- Generator: sketchtool 62 (101010) - https://sketch.com -->
    <title>017F66A6-2CEF-4A0F-B6F9-082858605143@1.00x</title>
    <desc>Created with sketchtool.</desc>
    <g id="Logos-[v1-complete]" stroke="none" stroke-width="1" fill="none" fill-rule="evenodd">
        <g id="logo">
            <g id="Logos-/-beam_logo_primary">
                <g id="beam_logo_01">
                    <path d="M90.7198347,58.9769725 L88.4756198,58.9769725 C87.6155647,58.9769725 86.9184573,58.2805046 86.9184573,57.4212385 L86.9184573,30.0016514 C86.9184573,28.6892202 86.6034435,27.6944037 85.9747934,27.0176147 C85.3460055,26.3415138 84.4833333,26.0031193 83.3881543,26.0031193 C82.2915978,26.0031193 81.4398072,26.3415138 80.8300275,27.0176147 C80.2214876,27.6944037 79.9173554,28.6892202 79.9173554,30.0016514 L79.9173554,57.4212385 C79.9173554,58.2805046 79.2202479,58.9769725 78.3603306,58.9769725 L76.0552342,58.9769725 C75.1951791,58.9769725 74.4980716,58.2805046 74.4980716,57.4212385 L74.4980716,30.0016514 C74.4980716,28.6892202 74.1830579,27.6944037 73.55427,27.0176147 C72.9242424,26.3415138 72.0831956,26.0031193 71.0272727,26.0031193 C68.6732782,26.0031193 67.4955923,27.3363303 67.4955923,30.0016514 L67.4955923,57.4212385 C67.4955923,58.2805046 66.7984848,58.9769725 65.9384298,58.9769725 L63.6951791,58.9769725 C62.8352617,58.9769725 62.1381543,58.2805046 62.1381543,57.4212385 L62.1381543,23.6837615 C62.1381543,22.4164679 63.1663912,21.3891743 64.4348485,21.3891743 L64.4353994,21.3891743 C65.2078512,21.3891743 65.9301653,21.7706422 66.3652893,22.408211 L66.5841598,22.7291284 C66.7334711,22.9479358 67.0431129,22.9486239 67.2144628,22.7466055 C68.2590909,21.5137156 69.7331956,20.896789 71.6370523,20.896789 C73.2595041,20.896789 74.5183196,21.2256881 75.4121212,21.8808716 C76.100551,22.3881193 76.6331956,23.0424771 77.0082645,23.8431193 C77.1374656,24.1190367 77.5206612,24.1440826 77.6794766,23.8841284 C78.2001377,23.0324312 78.8539945,22.3549541 79.6428375,21.8505963 C80.6366391,21.2149541 82.2090909,20.896789 84.361708,20.896789 C85.4582645,20.896789 86.4818182,21.1122936 87.4363636,21.5424771 C88.3895317,21.9734862 89.2224518,22.578578 89.9323691,23.3573394 C90.6422865,24.1369266 91.2114325,25.0797248 91.6373278,26.1875229 C92.0632231,27.2944954 92.2768595,28.5251835 92.2768595,29.8786239 L92.2768595,57.4212385 C92.2768595,58.2805046 91.5797521,58.9769725 90.7198347,58.9769725" id="Fill-1" fill="#444444"></path>
                    <path d="M54.4836088,49.5729358 C54.4836088,50.8859174 54.1490358,52.0334862 53.4790634,53.0177064 C52.8090909,54.0016514 51.7639118,54.4940367 50.3435262,54.4940367 C49.0442149,54.4940367 48.0497245,54.0633028 47.3600551,53.2021101 C46.669146,52.3409174 46.3250689,51.1318349 46.3250689,49.5729358 C46.3250689,48.1787615 46.619146,46.927156 47.207989,45.8201835 C47.7954545,44.7125229 48.5168044,43.7190826 49.3692837,42.8362844 C50.2217631,41.9547248 51.1141873,41.1963303 52.0484848,40.56 C52.3709366,40.3402294 52.6789256,40.1316055 52.972314,39.9339908 C53.618595,39.4988532 54.4836088,39.966055 54.4836088,40.7445413 L54.4836088,49.5729358 Z M57.4061983,23.3654587 C55.8634986,21.7661009 53.8137741,20.966422 51.2568871,20.966422 C50.0392562,20.966422 48.9833333,21.0893119 48.0909091,21.3352294 C47.1971074,21.5816972 46.4163912,21.9200917 45.7464187,22.3504128 C45.5203857,22.4958716 45.322314,22.6612844 45.1192837,22.8231193 L45.1192837,22.798211 C45.1192837,22.798211 44.4064738,23.2714679 43.8245179,24.0956422 C43.807438,24.1184862 43.7899449,24.1409174 43.7742424,24.1647248 C43.7666667,24.1757339 43.7585399,24.185367 43.7509642,24.1966514 C43.722314,24.2395872 43.7044077,24.2797706 43.6871901,24.3198165 C43.4670799,24.7270183 43.4055096,25.1859633 43.5061983,25.6109174 L43.4986226,25.6111927 C43.6275482,26.4214679 44.3151515,27.5102752 45.6913223,27.8944954 C45.7862259,27.9250459 45.8819559,27.9514679 45.9805785,27.966055 C46.0143251,27.9725229 46.0428375,27.9844954 46.0772727,27.99 C46.1480716,27.9945413 46.2060606,27.9884862 46.269697,27.9873853 C46.2893939,27.9871101 46.3086777,27.9871101 46.3282369,27.986422 C46.415978,27.982156 46.4964187,27.9722477 46.5709366,27.9576606 C46.9348485,27.8980734 47.287741,27.7343119 47.5873278,27.4678899 L47.5933884,27.470367 C47.5933884,27.470367 47.6106061,27.4528899 47.6360882,27.4282569 C47.6460055,27.4191743 47.6573003,27.4127064 47.6670799,27.403211 L47.6647383,27.4011468 C47.785124,27.2892661 48.064876,27.0522936 48.5256198,26.7740367 C48.5679063,26.7489908 48.612259,26.7298624 48.6539945,26.7031651 C49.3134986,26.2828899 50.1608815,26.0726147 51.1960055,26.0726147 C52.2918733,26.0726147 53.0931129,26.441422 53.6006887,27.1797248 C54.1077135,27.9177523 54.3618457,28.8817431 54.3618457,30.0712844 L54.3619835,30.862844 C54.3619835,31.566055 54.0742424,32.2392661 53.5555096,32.7148624 C53.0990358,33.1333486 52.5965565,33.5439908 52.0484848,33.946789 C51.1548209,34.603211 50.2217631,35.2908716 49.2476584,36.0075688 C48.273416,36.7255046 47.2993113,37.5251835 46.3250689,38.4067431 C45.3508264,39.2895413 44.4774105,40.2831193 43.7067493,41.3907798 C42.9352617,42.4978899 42.3066116,43.7587156 41.819146,45.1738073 C41.3325069,46.5887615 41.088292,48.2193578 41.088292,50.064633 C41.088292,51.8287156 41.3216253,53.3248624 41.7887052,54.5556881 C42.2552342,55.7861009 42.8745179,56.8012844 43.6458678,57.6012385 C44.4165289,58.4007798 45.2900826,58.9850917 46.2641873,59.3538991 C47.2384298,59.7232569 48.2125344,59.9076606 49.1867769,59.9076606 C50.7289256,59.9076606 51.9666667,59.6098624 52.9004132,59.0155046 C53.6293388,58.5518807 54.2096419,58.0188991 54.6418733,57.4168349 C54.8059229,57.1879817 55.1504132,57.2104128 55.2889807,57.455367 L55.5181818,57.8606422 C55.9323691,58.5934404 56.7093664,59.0464679 57.5517906,59.0464679 L57.5553719,59.0464679 C58.7506887,59.0464679 59.719697,58.0783486 59.719697,56.8841284 L59.719697,30.0712844 C59.719697,27.2005046 58.9483471,24.9649541 57.4061983,23.3654587 L57.4061983,23.3654587 Z" id="Fill-2" fill="#444444"></path>
                    <path d="M13.7683196,49.8024771 C13.7683196,51.5662844 13.3316804,52.766422 12.4589532,53.4013761 C11.5860882,54.0375688 10.6024793,54.3550459 9.50592287,54.3550459 C8.4100551,54.3550459 7.45606061,53.9862385 6.64476584,53.2479358 C5.8322314,52.509633 5.42658402,51.3615138 5.42658402,49.8024771 L5.42658402,38.1121101 L5.42727273,38.1121101 L5.42727273,29.9234862 C5.4292011,28.6157339 5.84421488,27.6229817 6.67520661,26.9481193 C7.50619835,26.2717431 8.4707989,25.9333486 9.56680441,25.9333486 C10.6633609,25.9333486 11.6374656,26.2618349 12.4892562,26.9177064 C13.3417355,27.5739908 13.7683196,28.578578 13.7683196,29.932156 L13.7683196,49.8024771 Z M16.6606061,23.1957798 C15.0163912,21.6173394 12.915978,20.8274312 10.3584022,20.8274312 C9.18071625,20.8274312 8.17603306,20.9812844 7.3446281,21.2884404 C7.06157025,21.3931651 6.80096419,21.5106881 6.56253444,21.641422 C6.04944904,21.9227064 5.42727273,21.5402752 5.42727273,20.9554128 L5.42658402,20.9558257 L5.42658402,10.9972018 C5.42658402,9.93536697 4.38539945,9.1856422 3.37727273,9.52142202 L1.13360882,10.2682569 C0.497796143,10.4800459 0.0688705234,11.0745413 0.0688705234,11.7441743 L0.0688705234,56.5834404 C0.0688705234,57.8669725 1.11033058,58.9072018 2.39490358,58.9072018 C3.14889807,58.9072018 3.85413223,58.5349541 4.27906336,57.9129358 L4.27975207,57.9119725 C4.54366391,57.5255505 5.09242424,57.4495872 5.43650138,57.7669266 C5.78856749,58.091422 6.22176309,58.4408257 6.73608815,58.8148624 C7.60812672,59.450367 8.81556474,59.7685321 10.3584022,59.7685321 C11.7381543,59.7685321 12.9658402,59.4916514 14.0421488,58.9383028 C15.1170799,58.3846789 16.0304408,57.6462385 16.7822314,56.7238073 C17.5326446,55.8005505 18.1112948,54.7454587 18.5176309,53.5552294 C18.9225895,52.3665138 19.1260331,51.1154587 19.1260331,49.8024771 L19.1260331,29.932156 C19.1260331,27.0202294 18.3039945,24.7749083 16.6606061,23.1957798 L16.6606061,23.1957798 Z" id="Fill-3" fill="#444444"></path>
                    <path d="M72.8713533,12.1055505 C72.8692837,13.5939908 71.6590909,14.7988073 70.1683196,14.7966085 C68.6775482,14.7945413 67.4707989,13.5861468 67.4729997,12.0977064 C67.4752066,10.6092661 68.6853994,9.40431193 70.1761708,9.40651075 C71.6669421,9.4087156 72.8736915,10.6171101 72.8713533,12.1055505" id="Fill-4" fill="#00C9F0"></path>
                    <path d="M62.8674963,2.99793578 C62.8651515,4.6003211 61.562259,5.89733945 59.957438,5.89514041 C58.3526171,5.89279817 57.0534435,4.59178899 57.055782,2.98954128 C57.0581267,1.38715596 58.3610193,0.09 59.965978,0.0923362901 C61.5706612,0.0946788991 62.8698347,1.39555046 62.8674963,2.99793578" id="Fill-5" fill="#00C9F0"></path>
                    <path d="M63.5738331,12.1619725 C63.5709366,14.1612385 61.9453168,15.7795872 59.9429752,15.7767011 C57.9406336,15.7738073 56.319697,14.1507798 56.322723,12.1515138 C56.3256198,10.1521101 57.9512397,8.53376147 59.9535813,8.53664751 C61.9559229,8.5396789 63.5767218,10.1627064 63.5738331,12.1619725" id="Fill-6" fill="#00C9F0"></path>
                    <path d="M26.9023416,30.0495413 C26.9023416,28.7371101 27.2775482,27.7422936 28.0286501,27.0655046 C28.7797521,26.3892661 29.7033058,26.0508716 30.7991736,26.0508716 C31.8544077,26.0508716 32.7677686,26.4196789 33.5391185,27.1579817 C34.3070248,27.8933945 34.692562,29.2005963 34.6953168,31.0755963 C34.6939394,32.499633 34.5931129,33.7618349 34.3917355,34.8612385 C34.1881543,35.9688991 33.8027548,36.9740367 33.2348485,37.8758257 C32.6657025,38.7788532 31.8739669,39.6088073 30.8599174,40.3674771 C29.7391185,41.1701835 28.530854,41.5731193 27.6841598,41.3464679 C27.611157,41.3313303 27.5417355,41.308211 27.4745179,41.2772477 C27.4603306,41.2711927 27.4439394,41.2691284 27.4301653,41.2625229 L27.4304408,41.2575688 C27.1263085,41.0988991 26.9023416,40.7878899 26.9023416,40.3996789 L26.9023416,30.0495413 Z M28.1582645,47.1630275 C30.1322314,46.6897706 31.4954545,46.1390367 32.869146,45.2583028 C34.5336088,44.1923394 35.8924242,43.0030734 36.9484848,41.6899541 C38.0038567,40.3783486 38.784573,38.8605963 39.2929752,37.1375229 C39.796832,35.4262844 40.0504132,33.3092202 40.053719,30.787844 L40.05427,30.787844 C40.05427,30.7816514 40.0538567,30.7755963 40.0538567,30.7695413 C40.0538567,30.7594954 40.05427,30.75 40.05427,30.7399541 L40.0533058,30.7399541 C40.0483471,29.1606881 39.8052342,27.7717431 39.323416,26.5736697 C38.8359504,25.3640367 38.1666667,24.3385321 37.3141873,23.4977064 C36.461708,22.6575688 35.4774105,22.0212385 34.361157,21.590367 C33.2443526,21.1600459 32.0571625,20.9448165 30.7991736,20.9448165 C29.4997245,20.9448165 28.2822314,21.1398165 27.1464187,21.5288532 C26.0092287,21.9192661 25.0242424,22.5034404 24.1933884,23.2823394 C23.3604683,24.061789 22.7107438,25.0153211 22.2450413,26.1427982 C21.7830579,27.2589908 21.5506887,28.545 21.5455923,30.0016514 L21.5446281,30.0016514 L21.5446281,50.5352752 L21.5455923,50.5336239 C21.550551,51.9912385 21.7829201,53.2988532 22.2450413,54.4556422 C22.7107438,55.6241284 23.3504132,56.608211 24.1629477,57.4077523 C24.9742424,58.2077064 25.9280992,58.8133486 27.0239669,59.2228899 C28.1205234,59.632844 29.3172176,59.8380275 30.6165289,59.8380275 C31.8739669,59.8380275 33.0618457,59.632844 34.1786501,59.2228899 C35.2942149,58.8133486 36.2581267,58.2077064 37.0707989,57.4077523 C37.8820937,56.608211 38.5216253,55.6241284 38.988843,54.4556422 C39.4389807,53.3258257 39.6673554,52.0493119 39.6826446,50.6324312 L39.6922865,50.6311927 L39.6922865,49.554633 C39.6922865,48.5274771 38.7177686,47.8019725 37.7415978,48.0588991 L37.7326446,48.0525688 C37.7326446,48.0525688 35.6305785,48.5461927 34.9780992,49.0216514 L34.9578512,49.029633 C34.9460055,49.0398165 34.9380165,49.0537156 34.9264463,49.0641743 C34.9103306,49.0777982 34.8904959,49.0915596 34.8769972,49.1051835 L34.8838843,49.1113761 C34.8013774,49.1925688 34.7198347,49.2745872 34.6515152,49.3683028 C34.6274105,49.4002294 34.6104683,49.4357339 34.588843,49.4695872 C34.5210744,49.5756881 34.4639118,49.6877064 34.4173554,49.8066055 C34.4150138,49.8134862 34.412259,49.8199541 34.4100551,49.8266972 C34.334022,50.0274771 34.2805785,50.2395413 34.2749311,50.4659174 C34.2724518,50.4766514 34.2699725,50.4873853 34.2699725,50.4873853 C34.2699725,51.7590826 33.9245179,52.7325688 33.2348485,53.4093578 C32.5439394,54.0861468 31.6719008,54.4245413 30.6165289,54.4245413 C29.4794766,54.4245413 28.5769972,54.0861468 27.9068871,53.4093578 C27.237741,52.7325688 26.9023416,51.7590826 26.9023416,50.4873853 L26.9023416,48.7471101 C26.9024793,48.0390826 27.4692837,47.3281651 28.1582645,47.1630275 L28.1582645,47.1630275 Z" id="Fill-7" fill="#444444"></path>
                    <path d="M96.765427,19.0330734 L95.6712121,19.0330734 L95.6712121,20.5061009 L96.765427,20.5061009 C97.1077135,20.5061009 97.4831956,20.1956422 97.4831956,19.7861009 C97.4831956,19.3442202 97.1077135,19.0330734 96.765427,19.0330734 Z M97.4179063,22.5524312 L96.3900826,20.9810092 L95.6712121,20.9810092 L95.6712121,22.5524312 L95.149449,22.5524312 L95.149449,18.5746789 L96.765427,18.5746789 C97.434573,18.5746789 98.0216253,19.0495872 98.0216253,19.7861009 C98.0216253,20.67 97.2384298,20.964633 97.0103306,20.964633 L98.0702479,22.5524312 L97.4179063,22.5524312 Z M96.4709366,17.5600459 C94.8061983,17.5600459 93.4680441,18.8858257 93.4680441,20.5556422 C93.4680441,22.208945 94.8061983,23.5672018 96.4709366,23.5672018 C98.1201102,23.5672018 99.4581267,22.208945 99.4581267,20.5556422 C99.4581267,18.8858257 98.1201102,17.5600459 96.4709366,17.5600459 Z M96.4709366,24.0255963 C94.5612948,24.0255963 93.011708,22.4705505 93.011708,20.5556422 C93.011708,18.6242202 94.5612948,17.0851376 96.4709366,17.0851376 C98.3971074,17.0851376 99.9311295,18.6242202 99.9311295,20.5556422 C99.9311295,22.4705505 98.3971074,24.0255963 96.4709366,24.0255963 L96.4709366,24.0255963 Z" id="Fill-8" fill="#444444"></path>
                </g>
            </g>
        </g>
    </g>
</svg>